/* XPM */
static char *e1d46b59d7e54e2d8212736f9ce90916WexeHsBt7UppPhj8[] = {
/* columns rows colors chars-per-pixel */
"64 64 211 2 ",
"   c #0E5A7C",
".  c #1D5D78",
"X  c #2C5B6D",
"o  c #26556F",
"O  c #345D6B",
"+  c #255D75",
"@  c #39606F",
"#  c #37636E",
"$  c #2C6375",
"%  c #2C647C",
"&  c #2E687D",
"*  c #27657E",
"=  c #3A6475",
"-  c #356579",
";  c #3F6578",
":  c #3A6A7E",
">  c #336579",
",  c #426B7B",
"<  c #4F6F7C",
"1  c #095D82",
"2  c #125D83",
"3  c #07648D",
"4  c #0A648D",
"5  c #0B6B8C",
"6  c #1F6780",
"7  c #12658B",
"8  c #136A8D",
"9  c #1C6C8C",
"0  c #18648A",
"q  c #046694",
"w  c #0A6592",
"e  c #046A95",
"r  c #0C6B93",
"t  c #026D9B",
"y  c #0B6E99",
"u  c #126591",
"i  c #146E93",
"p  c #1C6E93",
"a  c #136E9B",
"s  c #1B6D9B",
"d  c #077197",
"f  c #0B7095",
"g  c #04729D",
"h  c #0C749C",
"j  c #04789F",
"k  c #0B799E",
"l  c #157295",
"z  c #1A7295",
"x  c #14749C",
"c  c #1A759B",
"v  c #12799D",
"b  c #1C799D",
"n  c #226A86",
"m  c #2A6B85",
"M  c #246D8C",
"N  c #296682",
"B  c #336A82",
"V  c #3A6C83",
"C  c #22718F",
"Z  c #2E718B",
"A  c #31748F",
"S  c #206F90",
"D  c #306F90",
"F  c #227293",
"G  c #297293",
"H  c #22759B",
"J  c #247A9D",
"K  c #2B7C9C",
"L  c #3B7B97",
"P  c #347D9B",
"I  c #3F7493",
"U  c #016EA1",
"Y  c #026FA8",
"T  c #106EA1",
"R  c #0375A3",
"E  c #0B75A3",
"W  c #047AA5",
"Q  c #0C7AA3",
"!  c #0176AA",
"~  c #037BAC",
"^  c #0B7CAB",
"/  c #0D77A9",
"(  c #1375A2",
")  c #1B75A2",
"_  c #137BA4",
"`  c #1B7BA4",
"'  c #1777A9",
"]  c #147DAB",
"[  c #1B7DAC",
"{  c #0377B0",
"}  c #027EB2",
"|  c #0B7EB1",
" . c #027FB8",
".. c #147FB2",
"X. c #1C7FB0",
"o. c #2175A2",
"O. c #247BA4",
"+. c #2C7DA3",
"@. c #2576AA",
"#. c #247DAC",
"$. c #2A7DAB",
"%. c #327DAB",
"&. c #217FB2",
"*. c #297FB0",
"=. c #406A82",
"-. c #487185",
";. c #43778F",
":. c #4A778A",
">. c #457991",
",. c #39809E",
"<. c #0481AE",
"1. c #0B81AD",
"2. c #1682A7",
"3. c #1C81A6",
"4. c #1381AD",
"5. c #1B81AD",
"6. c #0382B4",
"7. c #0B83B3",
"8. c #0489B6",
"9. c #0B88B7",
"0. c #0285BA",
"q. c #0B86BA",
"w. c #0289BC",
"e. c #0C8ABC",
"r. c #1383B3",
"t. c #1B84B4",
"y. c #1388B7",
"u. c #1C88B6",
"i. c #1386B9",
"p. c #1B86B9",
"a. c #138ABC",
"s. c #1C8BBB",
"d. c #1D90BF",
"f. c #2282A6",
"g. c #2B82A6",
"h. c #2481AD",
"j. c #2B81AC",
"k. c #3181A3",
"l. c #3382AE",
"z. c #3983A0",
"x. c #2384B4",
"c. c #2B84B3",
"v. c #2489B6",
"b. c #2D8AB6",
"n. c #2687B9",
"m. c #2C86B9",
"M. c #238BBC",
"N. c #2C8BBB",
"B. c #3384B4",
"V. c #3A85B4",
"C. c #3389B6",
"Z. c #3A89B6",
"A. c #3487B9",
"S. c #3D87B8",
"D. c #338CBB",
"F. c #3B8CBB",
"G. c #2391BF",
"H. c #2C90BE",
"J. c #3491BE",
"K. c #3B90BD",
"L. c #578495",
"P. c #438DBC",
"I. c #418CB6",
"U. c #4291BC",
"Y. c #0086C1",
"T. c #0587C1",
"R. c #0089C0",
"E. c #018AC1",
"W. c #008BC2",
"Q. c #028BC2",
"!. c #0289C1",
"~. c #068AC1",
"^. c #008DC3",
"/. c #038DC3",
"(. c #058DC2",
"). c #008DC5",
"_. c #028FC5",
"`. c #018EC6",
"'. c #048EC5",
"]. c #028CC2",
"[. c #0C8DC2",
"{. c #028EC9",
"}. c #138EC2",
"|. c #1A8DC1",
" X c #0191C6",
".X c #0391C6",
"XX c #0A91C5",
"oX c #0291C9",
"OX c #0590C9",
"+X c #0D93CB",
"@X c #0B92C8",
"#X c #1492C5",
"$X c #1C92C4",
"%X c #1393C9",
"&X c #1894C8",
"*X c #1C94C9",
"=X c #1F98CD",
"-X c #238DC1",
";X c #2B8EC0",
":X c #328FC2",
">X c #398EC0",
",X c #2393C4",
"<X c #2C92C2",
"1X c #2396CD",
"2X c #2D98CB",
"3X c #3392C2",
"4X c #3B94C3",
"5X c #3396C9",
"6X c #3299C6",
"7X c #4293C2",
"8X c #4597C9",
/* pixels */
"~ } 6.6.6.+ 5._ ! ! ! ! _.} ~ E.w.0.~ ~ E.XX_._._.E.E.w.w.0.0.0.E.0._.E.0.6._.E.6.6.q.oX_.0.} Q.E.Y.q.w.6.6.} U t ! Y U t t } 6.",
"! } 6.6.} $ 5.] Q ! ! ! {.~ ~ E.^._.6.~ 0.%X^._. XE.E.E.0.6.w.0.0.q.'.&X .} E.Y.6.} ~.+X_.0.} w.E.Y.6.6.6.Y.0.} ! ! U q t t } } ",
"U } 6.0.E % ` 4.<.~ } } {.6.6.E._._.6.} 6.XXOX_._.E.E.E.E.0.0.0.E.w.(.*Xq.} 6.6.6.} 0.@XoX6.} _._.Y.6.0.6.0.0.} } } { t e R ! 6.",
"! } 6.6.x % f.] 0.6.q.} _.0.0.^._.w.w.6.0.@XOX X_.E.^.E.E.6.0.0.w.(.e.e.6.6.Q.0.6.~ 7.$Xw.6.6.E.Q.Y.6.0.} ~.0.6.}  .} ! R ! ~ 6.",
"! ~ } 0.c - h.4.0.q.q.~  X0.0.E.^.E.E.} e.=X'.%X@XE.^.w.w.w.6.} } } e.q.6.~ _.w.<.~ e.&X'.6.} E.E.w.6.6.6.[.a.0.6.} } ! R R ~ } ",
"R ! } 0.c B y.7.0.6.e.~ ^.0.w.E.^._.6.~ e.&X_.(._.^.0.E.w.w.0.0.6.0.&X$Xa.6.(.w.6.] q.*X(.6.} 0.w.0.6.6.6.e.|.6.6.6.} ~ R ~ } ~ ",
"! W } 0.` % t.6.6.6.e.~ _.E.E._. X^.6.6.0.%XXX@XQ. X^.w.w.0.0.w.w.[.2X,XM.| [.w.q.^ ! 6._.} ! 6.0.0.<.0.6.e.}.0.6.6.} ~ R R } ~ ",
"Q ^ 6.0.J % r.0.7.7.e.} ^.w.(.(.{.^.0.w.}.XXXX@XE.'.E.w.E.w.w.0.w.(.%X2X3X] |.w.6.~ } 0.0.} ! 6.0.0.~ 6.6.6.}.0.6.6. .~ W W ~ ~ ",
"E ~ } 6.G G u.6.q.~ q.6.E.q.w.^.E.E.6.[.}.@X'.[.^.~.E.^.w.0.6.6.6.6.q./ 3X| e.0.6.6.~ a.[.! ~ 6.6.6.W 6.6.6.e.0.6.6.6.} W R ~ ~ ",
"! ~ } 0.J n 5.6.6.~ q.6.^.[.(.(.w. X0.0.*X1XXXXX0.w.E.w.w.w.6.6.6.e.n...5X/ 6.0.<.6.! r.e.! ~ 6.} } <.6.} 7.} ~ 6.} } } h R ~ ! ",
"R } 6.0.K n J 6.6.~ 7.~ w.XX(.^.0.^.w.[.}.%XE.e.[.^.0.q.w.6.0.w.E.[.[ x.3X^ }.w.6.W ! i.|.! } 0.} } ~ } } 6.} ~ 6.} } ! g j W ~ ",
"~ } 6.} ` m g.7.6.~ | ~ E.(.(.^.^.(.w.[.q.&XE.6.OXXX^.w.w.1.w.w.w.w.s.5X3X..,Xw.6.d ~ 6.[.! } 6.6.6.~ <.6.} 6.} } 6.} ! R W W ~ ",
"~ } 0.} +.M 5.4.6.! 7.} E.w.6.w.w.0.w.0.q.&X_.w.&XXX^.w.w.7.^.w.w.E.p.<XM.] ,Xw.6.d ~ ~ } ~ } 6.6.} ~ 6.} } } } } } ~ ~ W ~ ~ W ",
"W ~ } } O.z 4.] 6.6.7.6.^.w.7.'.~.~.XXe.q.1X[.[.(.w.0.6.6.Q 6.6.q.0.r.<X7.} a.q.6.h ~ ~ } } ~ 6. .} ~ 6.~ ~ } } } } } ~ ~ W ~ R ",
"! ! } } ( z j.] } } i.6.6.0.7.[.~.w.e.w.e.*XXXw.w.[.0.8.6.4.~ 6.6.} |.|.n.} 6.~ W Q ! } w.} } w.} } <.6.~ ~ 6.} } ~ } ~ W W R R ",
"R ~ } 6._ 9 f.4.^ 7.i.} 6.6.6.~.~.w.[.[.[.,X[.q.[.[.w.w.w.6.w.8.w.6.q.i.M.} 0.~ E h ~ 6.0.6.} }.w.} ^ 6.} } } ~ 6.} ~ ~ ~ W R R ",
"R ~ } 6.` F g.] ^ | q.6.6.6.6.w.(.E.w.}.#X}.^.0.w.e.w.w.w.1.6.w.e.q.a.<XD.E ~ R W k ~ ~ q.q.} e.w.~ ~ 6.~ } } } 6.} ! ~ ~ Q W R ",
"! R ] 6.` M 5.` W 7.q.0.6.q.e.[.(.q.[.$X,X$XXXq.|.5Xw.w.w.1.6.q.}.e.-X;XM.#.~ ! ~ Q } ~ 6.} ~ 8.0.6.1.<.} } } } 6.~ O.P ~ E R R ",
"~ ^ Q 0.` Z r.Q ^ i.e.6.} q.q.$X|.q.e.}.#X$X$Xe.<X5X(.w.w.1.<.e.w.a.M.u.M.) } ~ W _ | ~ } ~ ~ q.0.6.^ <.~ ! 6.6.} ~ L.L.! k g h ",
"~ 7.} 6._ n O.( ~ | r.! h 0.6.}.}.[.w.a.$X$X,Xa.G.3Xe.w.w.1.6.6.w.M.3XM.D.t.} ~ R k ~ ~ } } } 0.6.~ c ^ R ! } 6.} 6.f.v R W g g ",
"~ 4.~ ^ ` > L b ! / i.! } 6.q.}.w.e.q.a.,X4X6Xs.<X3X#Xw.8.1.6.6.0.s.4Xr.C.N.6.Q h k ~ ~ ~ } } 6.6.| z <.~ ! } 6.} 6.~ W W j d R ",
"W Q W Q S X P _ R ^ i.| 7.} q.|.|.[.6.7.$X<X,Xe.H.G.w.0.8.2.8.6.w.M.4X4.C.N.6.f h Q ~ ~ ~ 6.} 0.6.6.v 6.} { ! ~ ~ ~ ~ Q W d h R ",
"e g ~ } 9 X O.b W ^ 7.e.7.~ w.e.|.}.6.7.2Xs.s.a.,X$Xa.w.w.4.8.6.6.N.4XN.x.t.6.W _ _ _ ~ M.M.6.0.0.6.Q <.~ ! ~ } ~ ~ ~ v k h k W ",
"! E ~ 6.S @ K _ W | 7.7.7.6.e.s.s.[.} | }.q.e.a.<X<X#X6.1.3.8.<.7.x.N.N.] ^ } 7.4._ ] r.M.N.q.0.6.6.r <.~ ! i.6.~ ~ ~ _ k h g W ",
"! W R 6.C - J 1.W ] 7.| 7.} q.|.|.e.~ ^ e.w.G.q.G.}.e.6.1.` 1.~ s.M.s.N.] <.6.1.4._ t.n.r.i.q.} 6.6.k Q 6.! } 6.~ ~ ~ Q Q k W ! ",
"R 1.f } n n K 3.W ..r.} 6.~ 6.|.a.0.~ ] ,Xa.<Xs.,Xq.~ 6.6.` 7.1.^ i.N.K...} 6.6.4._ b.F.M.M.7.R <.e.Q i <.! 7.} ~ ~ <.Q Q W ^ h ",
"R r.( ~ % n K O.E r.p.} 6.} 6.3X3X6.6.q.<XM.s.9.3XM.q.w.6._ 6.6.p.t.N.F.X.} 6.1.^ ( D.D.n.M.a.~ 6.6.Q Q } ^ i.} } ~ Q _ W x <.z ",
"R / E } p & J Q ~ n.N.q.} } 6.M.-X0.7.<X<X<X<Xs.<X<Xw.w.8.1.8.6.9.n.3XF.[ ~ ~ y.4.+.8X4X4Xy.i.} 6.6.Q ~ 7.t.i.6.} ~ ^ Q h k ~ 8 ",
"R ^ / ~ E m ,.^ ] x.D.7.} ~ 6.a.e.6.} 4X4X3X,Xa.s.y.6.w.q.1.8.6.7.p.M.C./ ! 6.y.4.K D.m.D.n.^ } ~ 6.Q E 6.t.i.6.6.} ~ _ l v } $ ",
"R ^ | 6.( * +.Q c N.D.| 6.~ 6.a.M.q.| 3X3X<Xd.y.s.a.q.8.6.2.9.1.a.y.N.F.E ~ 7.4._ g.N.5.n.M.1.~ ~ <.Q E } t.7.} <.~ ~ Q Q k } # ",
"R ^ ^ 6.E m g._ H D.N.x.q.} 6.-X4Xa.~ ;XH.<Xa.a.M.<Xq.q.7._ 9.1.7.~ N.P.[ 1.n.7._ ` p.t.N.t.r.~ ~ <.~ R } ..} ~ } ~ ~ k k h 6.X ",
"R W Q q.R M z._ b D.n.s.y.~ 6.H.a.q.} M.a.q.a.7.a.M.a.0.1.Q 8.7.6.} t.D.b.r.;X1.b c ~ ^ t.t.7.~ } 6.W W 7.x...} 6.~ Q Q c Q q.& ",
"R ^ E 6.h B k.` _ D.n.x.t.7.6.M.M.|.e.q.s.q.7.s.M.s.a.6.1.2.6.1.6.6.5.N.C.N.M.v 9 _ R r.>XM.y.y.~ ~ ~ W E c.n.6.6.~ Q Q _ Q } $ ",
"R E Q q.x m t.( 5.N.n.n.-X7.y.s.;X-Xs.7.M.7.M.G.s.G.a.w.1.` 7.<.7.r.p.b.Z.F.n.] Q Q ! D.7XN.u.i.6.<.<.g ) F.t.6.~ ~ Q k v Q ^ 9 ",
"E E E ^ M Z 4.~ ^ N.N.N.:Xr.r.a.s.e.s.i.s.7.s.H.H.3Xa.w.7._ y.<.7.M.u.c.C.4XD.7._ z ( D.4XF.s.y.6.<.1.d H F.x.6.} ~ E Q h ^ ^ c ",
"R / r g B Z 5.` ~ N.D.t.:X4.r.i.a.q.H.M.a.^ M.J.4Xv.q.w.4.2.r.7.q.n.5.h.C.F.N.4._ k $.F.7X>X1.7.~ ^ ^ k $.A.x.} ~ W E Q Q W ] H ",
"! x i R 9 m 4.b ^ D.D.t.:Xt...M.N.s.M.a.q.^ M.H.4X3Xa.0.^ 2.7.<.y.n.D.c.B.K.D.^ ^ h ) N.4XA.7.q.W <.Q ] b.F.n.<.~ W g _ Q <.r.l ",
"! / g / i m 4.( ^ n.b.[ N.p.7.s.N.a.u.y.s.7.M.J.3XM.a.w.^ ` 7.6.6.s.N.Z.b.7XN.1.2.b 8 x.Z.D.y.7.~ <.Q J j.P.X.~ <.R h x l Q r.c ",
"! E E ] f V f.` | x.x.] n.] ~ a.u.i.s.M.M.y.N.4X4Xv.q.w.^ _ q.<.6.y.M.K.A.D.r.7.4.` 8 b.U.n.7.6.~ 1.^ ` j.P.h.] 6.W k k l _ c.z ",
"R / Q | 7 , k.O.7.t.] 7.M.t.^ M.i.7.M.N.M.p.:XJ.4XM.7.w.^ _ w.6.q.a.M.A.D.F.t.5.7._ r c.F.x.7.6.~ ^ _ ` l.V.n.r.~ Q k v Q 4.g.o.",
"! ^ ^ ! 7 : g.] 7.7.^ ^ x...~ a.y.7.s.K.N.y.N.J.J.s.7.e.4.O.w.6.q.a.u.B.Z.F.n.4.] k 7 c.F.x.7.6.~ 4._ t.V.P.] r.6.E Q v ( 4.$.O.",
"! ~ W ! 8 B h._ 7.6.~ ] p.^ ! y.N.r.t.N.s.t.u.J.3XN.s.e._ J 1.7.q.a.M.Z.Z.K.x.r.Q 9 i B.Z.t.7.6.W 4.1.t.C.F.] 4.<.Q Q x l ] j.` ",
"! W ^ ! i V g.` ~ } ~ 5.x.! W i.M.7.| u.y.p.r.F.H.3Xs.6.x Q 7.6.6.e.s.A.F.F.N.^ E i ) A.C.r.7.6.W 4.1.^ [ B.n.t.<.W Q x ( t.B.O.",
"R E ] E 8 , g._ ~ ~ ! ] x.R ~ y.r.7.t.n.n.M.u.7X3XD.M.| H v.<.9.7.q.t.Z.F.C.x.[ Q 9 b Z.F.t.7.~ Q ] ` W ] c.c.t.~ W Q c l 5.C.) ",
"! / [ E N , [ _ ~ | ! ] x.g } p.y.y.4.n.N.M.t.F.N.K.s.~ H b.~ e.6.q.N.F.Z.b.t.#.^ i o.F.b.t.~ ! _ F . ) Z.c.c.r.~ k ( z l ] h.c ",
"! E [ | 9 = 5.( ~ 7.~ ] b.t ~ ;Xt.y.t.x.D.>Xn.N.K.J.s.~ v t.~ 0.6.q.n.b.n.m.N.[ _ i o.S.x.7.~ Q b 6 g [ F.*.@.r.~ E k l ( ] ) ` ",
"! / [ | i - _ ( ~ t.^ ] Z.r / p.t.r.x.t.N.7X1.N.7XD.7.~ h _ ~ w.q.y.x.A.c.A.N.] x 8 O.Z.x.7.} E F x T.[ B.c.[ ^ ~ Q _ z _ E [ ` ",
"g x [ ..F C / c ~ X.n.t.F.E ^ 7.7.r.M.N.x.D.r.N.K.N.y.~ x h.1.w.7.7.t.D.C.Z.t.4.` i ) P.x.~ ~ Q F z 6.| j.c.' ] ~ E l c _ ( ' ) ",
"t x [ t.) x ` ` ~ r.m.c.Z.E ^ y.} ^ n.D.b.N.^ v.D.D.s.7.h.F Q 6.6.7.M.b.P.Z.t.Q ` 8 H I.c.| ~ ~ c z 0.^ $.n.[ ] ~ h c z k h #.` ",
"g E &.X.( f K ( | t.B.B.F.W ^ i.! g p.N.x.N.| N.F.K.r.r.x.O.~ 6.} 1.p.N.S.F.x.~ _ 8 H P.c.7.~ ~ _ 9 R 7.B.c.#.^ R ( l z x r ) x ",
"g / c.&.c p P _ ] x.A.B.P._ Q 7.} ^ n.N.x.b.y.N.n.N.t.6._ ` ~ 6.7.7.i.C.V.C.x.^ v 5 ) F.c.7.~ r._ M g ] Z.B.h.] ! k c c k 4 ` _ ",
"t E $.#.( H P ` ] [ c.Z.F.) E t.p.y.r.x.m.x.t.t.N.D.N.y.E x ~ <.7.7.7.A.V.B.x.~ _ f ' V.c.1.} ~ _ G 6.W c.A.] ] ~ k c c f 7 ( Q ",
"U g #.c.( p L z ( [ #.Z.Z.#.W 4.y.7.7.x.n.n.] n.D.N.M.t.W _ ~ ~ 7.y.r.B.F.B.t.Q b i ' %.c.} ~ ~ ` J 7.~ B.c._ / ! k l z E 7 x Q ",
"t y ' c.a p >.c E h.C.Z.F.#.W | 1.i.7.t.x.x.4.C.Z.F.N.y.v ` ~ ~ ~ 1.| h.V.Z.x.W x l [ %.B.r.^ | Q ( W ^ c.x.] ^ R f l l ^ 3 r Q ",
"t y ( #.a D ;.E _ $.B.V.F.#.Q y.7.7.r.x.t.x.y.t.F.N.x.r._ ` ~ ~ t.7.} c.V.V.c.^ c i #.%.$.r.r.7.^ _ Q h $.t.E ! R h i p R 4 a R ",
"e r x #.H : A E [ $.$.%.F.c.5.7.~ 7.1.N.x.t.t.x.Z.D.x.7.` ` ~ ~ | } 7.c.V.Z.c.^ ^ i O.$.[ r.^ <.^ Q W g o.#.R ! g f 9 l f 2 ) E ",
"e 7 i $.) & I ( ] #.B.O.j.j.j.r.4.7.r.t.x.x.4.b.b.x.t.y._ _ ~ ~ | ~ 7.Q B.P.x.W E 8 O.B.&.^ r.~ W _ W W ' [ / W g y 9 l h 2 ( h ",
"w 7 ( $.s B -.y k [ B.l.B.h.[ ^ r.7.| x.b.c.n.C.c.N.t.r.^ Q W ~ ^ ! ~ ] j.V.[ E h 9 $.V.] ^ r.~ W b W ~ O.#.E ! g f l x y 3 g g ",
"e w ) $.u =.:.i r ` j.%.V.#.] ] 1.7.} x.C.x.b.b.b.c.t.t.] k W ~ ~ ~ ! ^ @.#.&.E E l M l.] ^ ^ ~ ~ b ^ ~ @.#.E ! R r i l y w g r ",
"3 t x @.7 ; V a y ) $.r ` j.k [ x.~ } t.x.] t.5.^ r.t.r.] E R ~ ~ ~ ! t a $.[ g h l + $.] W ~ ~ ~ ( ~ W o.[ E U t f l x t w t e ",
"w r ( x 1 - < c E c o.t E %.e ^ X.^ | ^ #.[ c.x.r.7...r.4.R R ~ ! ! R q c B.] R h 9 o $.R ~ ^ ~ ~ E ~ W H ] R t e r i f t 3 q r ",
"7 3 ) a   ; , a g f E e ( B.e ~ 4.r.^ ] j.t.x.c.^ ~ r.t.7.W R ^ ! R t q a c.] / d 7 . $.g ~ ^ W W R R W #.#.E t e r 8 x t 3 t w ",
"7 u ( r 1 O & y r x #.3 O.c.t / ^ ^ ^ #.c.X.] t.r.<.^ ^ ~ R ^ ] t t t q y #.] ! r 0 i %.] ~ W W W W W t s #.t t t 5 5 h u 7 q r ",
"3 3 y q w O 9 t y ( ) r $.$.t [ ] ^ ^ ] c.] t.4.c.h.r.r.~ W W ^ t t R q x #.g ! f 7 O.l._ ~ W ~ W R W t T ' g t t w 5 r w 0 q e "
};
