/* XPM */
static char *_546369d11ca48bfb6d7d4fbd969a6e34gMlyu6I5OWR4KW6[] = {
/* columns rows colors chars-per-pixel */
"64 64 166 2 ",
"   c #554233",
".  c #5C4A3C",
"X  c #644A34",
"o  c #644D3D",
"O  c #684F3D",
"+  c #65503F",
"@  c #6C523C",
"#  c #735032",
"$  c #73563C",
"%  c #76583E",
"&  c #665242",
"*  c #6A5442",
"=  c #6D5847",
"-  c #685648",
";  c #6C5A4C",
":  c #725640",
">  c #735944",
",  c #7A5C44",
"<  c #735E4D",
"1  c #795E49",
"2  c #7C614A",
"3  c #776151",
"4  c #7B6452",
"5  c #826247",
"6  c #83644C",
"7  c #89674D",
"8  c #84694E",
"9  c #8B6A4E",
"0  c #826650",
"q  c #856A53",
"w  c #8C6C53",
"e  c #856C59",
"r  c #8B6E59",
"t  c #916F54",
"y  c #916E58",
"u  c #8F7054",
"i  c #8D735C",
"p  c #947256",
"a  c #997556",
"s  c #95745A",
"d  c #99765B",
"f  c #97785D",
"g  c #9C7A5E",
"h  c #A27D5E",
"j  c #A87F5F",
"k  c #897260",
"l  c #957760",
"z  c #957961",
"x  c #9D7C62",
"c  c #9D7E69",
"v  c #A27E63",
"b  c #A17E68",
"n  c #9F8064",
"m  c #9E816A",
"M  c #A58165",
"N  c #A98466",
"B  c #A68369",
"V  c #AA866A",
"C  c #AD896D",
"Z  c #B18B6E",
"A  c #A78770",
"S  c #AA8771",
"D  c #A78873",
"F  c #AD8B71",
"G  c #B28E72",
"H  c #B18E79",
"J  c #AF9074",
"K  c #B59073",
"L  c #B49173",
"P  c #B79073",
"I  c #B39074",
"U  c #B39175",
"Y  c #B39176",
"T  c #B59075",
"R  c #B49175",
"E  c #B69174",
"W  c #B59274",
"Q  c #B79275",
"!  c #B69375",
"~  c #B49076",
"^  c #B59177",
"/  c #B59076",
"(  c #B69176",
")  c #B59276",
"_  c #B49277",
"`  c #B79277",
"'  c #B69377",
"]  c #B79476",
"[  c #B69576",
"{  c #B49175",
"}  c #B89174",
"|  c #B99275",
" . c #B89076",
".. c #B89376",
"X. c #BA9376",
"o. c #B99477",
"O. c #B89577",
"+. c #BB9477",
"@. c #B89274",
"#. c #B39178",
"$. c #B29279",
"%. c #B3907A",
"&. c #B59179",
"*. c #B59378",
"=. c #B49279",
"-. c #B69278",
";. c #B79379",
":. c #B4917B",
">. c #B5937A",
",. c #B79478",
"<. c #B69479",
"1. c #B7957A",
"2. c #B6947B",
"3. c #B7957C",
"4. c #B59379",
"5. c #B89378",
"6. c #B89379",
"7. c #B99479",
"8. c #B89579",
"9. c #BA9578",
"0. c #B99678",
"q. c #B89778",
"w. c #BB9679",
"e. c #BA9779",
"r. c #B8947A",
"t. c #B9957B",
"y. c #BA957A",
"u. c #B9967A",
"i. c #B8967B",
"p. c #B9977B",
"a. c #BB977B",
"s. c #BC9578",
"d. c #BD9679",
"f. c #BC977A",
"g. c #B8947C",
"h. c #B9977C",
"j. c #BA967C",
"k. c #BB977D",
"l. c #B8957F",
"z. c #BA967E",
"x. c #B99579",
"c. c #B99879",
"v. c #BB987A",
"b. c #BB9A7B",
"n. c #BD997B",
"m. c #BA987D",
"M. c #BB987C",
"N. c #BB997E",
"B. c #BC997D",
"V. c #BE997C",
"C. c #BD9A7C",
"Z. c #BC987E",
"A. c #BD997F",
"S. c #BD9A7E",
"D. c #BC9A7F",
"F. c #BE9B7F",
"G. c #C09D7F",
"H. c #B99680",
"J. c #BA9783",
"K. c #BD9B80",
"L. c #BF9C81",
"P. c #BF9D82",
"I. c #C09B80",
"U. c #C29D80",
"Y. c #C2A084",
"T. c #C6A186",
/* pixels */
") ) ) ) ) G F C V V V C C C F G G G G ) ..9.9.f.o.v.9.) G K ] o.] ] o.o.] ) K L ) ] 9.L Y.m.h.9.h.9.h.9.h.V.h.9.V.m.m.m.m.m.m.m.",
") ) ) ) I G F C C C C C G F G G G G K ) ..9.9.f.9.9.o.) ) ) ) ..o.o.o.o.....) ) 9.] v.v.G I h.9.) *.,.,.h.h.h.h.,.9.m.V.m.h.h.m.",
") ) ) ) I G G G C C C C G F C C G K ) ) ..o.9.9.V.o.) 9.9.....9.o.o.o.o.o.o.o.o.9.K 9.G.v F 9.9.m.h.h.h.h.h.9.h.) h.L.L.K.m.m.m.",
") ) ) ) I I G G C C V C F C C C G K K ) ) ......n.) ) f.f.) ) 9.....o.9.9.9.o...] ) 9.V.V G V.V.m.,.,.9.h.h.9.9.,.m.K.L.K.m.m.m.",
") ) ) ) G G C C G C V C F F G G G G G G K K ) ) ..G K 9...G G o.K ) o.f.f.9...) 9.9.n.o.L.9.V.L.G C C G h.V.h.h.h.h.h.h.m.h.,.*.",
",.,.) I G C V B C C C C C C F G G G G G G G K K ......f...G K f.K ..o.f.f.f.....9.f.f.G T.V.9.9.G C C I h.h.h.9.V.h.,.,.9.h.,.*.",
") ) ) ) G C V B C C C F C C C F G G G G G K K K ..s.f.s.o...f.f.....s.f.f.s.o...9...o...9.9.9.) *.I I h.V.9.*.*.m.h.,.,.9.h.h.,.",
"G I ) ) ) G F C C F I ) G C C F G G G G G K ) ) ......K ..o.o...f.f.o.o.o.o.f.f.V.) o.U.C 9.I.9.G G *.m.h.) ) h.*.*.,.,.,.*.,.,.",
"I G G ) ) G G G B F H.H.H B B C C V V G ..G C G ..) G Z G f.f...o.o.o.o.o.o.....9...6.9.,.) ) 9.9.) 9.) K.9.h.) 9.*.G h.$.F H.S ",
"G G G I G G C G C C F F S B B C C G G G Z F C V G G K G ..f.f...) ....o.o.o.....9.o.6.6.) G G *.9.,.V.) h.) h.*.9.*.G h.*.F $.H ",
"G G G G G G C C Z V B B V V V V Z G G G C V V S V C G ) ) ....G ) K ) ..o.o.....9.9.9.) G C G *.,.9.K.*.*.F *.h.h.) ) *.*.F S $.",
"G G G G G G G C C V N V C V V V Z B N G G B B F V V C G G ) G G K ) ..............9.9.) F C G *.) ) V.) *.F *.h.h.) *.G *.F b $.",
"G G G G G G G C C C C C C V N C Z B N G G B M B F C V C G ....) L ) ........P K ) o.9.) G F ) 9.) ) m.) 9.G 9.9.9.G *.G *.G M $.",
"G G G F G G G C C Z Z C N B N C C Z Z Z C C B f G C B V G G ) ) G K ) ....P G K K ..6.) G G *.9.,.) 9.) V.*.h.9.*.) *.*.3.*.F H ",
"G G G C C G G C F C C C N N V C V Z Z V C C M s F V V C F F G G C G ) ..) P K ..G ) ) G G ) *.*.9.) 9.I 9.) h.9.*.*.) g.,.*.$.S ",
"F G F C C G G C F V C C Z C V B V V C Z C V M c C C C G G F C G V Z K ..........G ) ) G G ) ) ) ,.) 9.G ) G *.9.*.6.G h.$.G :.x ",
"G G C C G C C C C C C V V V V V B C G G B f z M B s $.v C G G F Z Z Z ) o.........G G G G G 6.G *.) G C F *.,.I *.,.) I I S B S ",
"G G C C C C C C C C C C C V V C v B C C B x c B s , M B C C G V C C Z G ) K K ..) G G G G G *.G F F C C F G I G ) *.I I $.S A S ",
"G Z C C C C C C V C Z C C V C C N C G V v v B B c , B F C V G v C C C G ) ......9...) G G G G G C C F F G F G I ) ) I $.3.J S D ",
"G Z C C C C C C C C C C V V C C V G G V v B V V $.s C G F V C N C C Z G K ......o...G G G G C C C C F G G F G ,.) ) G $.3.$.S D ",
"G Z C G G C C C C V N N N V V V B C C B B V C C F B C V G C Z Z C C C C Z G K G G G C G G G C G F C F F F C F ,.*.) G G *.F S S ",
"G C C C G C C C C V M M N V N N V V V B B B V V x V V B G G Z Z C Z C C Z G K G K ..C C G C B G G G G F F F I ,.*.) G G $.F A S ",
"C C C C C V V V C N B B N N B M C V B B N B B B x B V V C Z Z Z G G G Z Z P ..K ..9.G C ) C B G F G G F F G *.*.) ) G F G S B D ",
"C V V C C V V V N N N N N N M v N M M V V N N V v v B G B V G V Z G Z C Z G K G G K C C ) G V 9.C F F C F G I G ) ) G F G S A F ",
"C C V V V V V V V V C C C B v v B V B v V B v V v B B N C C V C C C M B ) K V Z I ) C V I G C C M $.$.C F ) I C F G G F F G G V ",
"C C V V B B B B N N V V N B B v B B v v V V B V M B B B C C V C C V B N G G C Z C G F C ,.) C G 5 c G G G ) ) ) ) *.) G G G F V ",
"C V V V V B M v B V V N N V N B B B x v V V B B B B B B V V B V G C C C Z Z Z C C G C V F C V G x C F F G G C C I I G F F F S V ",
"V V V V V B M v B V C N N V N v B B v v B B B B M B B B V V N V Z V Z K V C G C V C B B C V B C ) ) C C G G G I G C C C F S C S ",
"V V V V C V B M v N V N B B v g B B B B B B B B v B v B V V B V M h Z G B V ) F v B B V G C B C C G I G F C C ) K F C F S S S F ",
"V B B V C C V B M N V V B v v g v v B B v v B B v B B B C V B V C N Z G B V F B C F V V F V B F G ) G C F C V C ] G C F S B B D ",
"V B B B V V V B N N N V B v v B v x v B g g B v B B B B C C B V P Z Z Z C F V g C G C V V v v F Z Z V N G 9.) G K C C F S m c m ",
"V V B B V V V V N v v M v g v B B g v v d d v g V V V B C C V C Z V N V F G C f s B F I G M x C Z P P Z Z G F F L C C J F m z c ",
"V N B B N N N N B B v g V g v M h v B v v V B d v x v B V C C V Z V C G G V x f f x F F F B g G G C V C G G G C C C G C S B c B ",
"N N B B N V V V v M M x V g v v h M B B v B B p v x g v V C V V Z V V G C V B B B x B F V B V F C V V C F F C C C C F C S B c B ",
"N B M B V C C V B B V B N v h g v v v v x B M a v v v M V V V V Z V C C C B B F C x B F v v G C C V V C F C C C C V C V S C c B ",
"N B M B N C V N M h N v v h d a M v g d s v B g B v v B V V V V V Z Z Z V v B C B B B C f s F F C C C C F C C G C B B B C S M B ",
"V B M M N N N M N h M v B V g v M v g d s x B v B v v v B V V V Z Z Z V v x v B v C B B v d V F C C C C F C F G F B B v V S B S ",
"V N M M M M M M V B M v B B w c v v v x x v B h v v v v v B V V Z Z V v h x M V B F B M C B B V V V V V C C C G F B B v B B M S ",
"V N B M v M M B B v g d s w @ w g g x v x v B h v v x x v B N V V V N B B B B B C B V B B C B v V B B B V V C C C B B M B B c M ",
"V N N M v v M N B V M x z w X s g d d d d v B M v v v v v B V C N N N V C C B x B f F V f B B x V B B B V V C C C B B M B M l c ",
"C B v v B V V N N N B x g g d p d s d d x v v v M h g p N B C V B N N N N N N V V B B M x z M D f M B B B B V V B V B B v y s D ",
"V B B B V V B v M x g g g d d z d f x v B B B v M M N v V v v x B B M B N V V N V V C V M z z c f v B B B V C C B B B B V c c H ",
"V B V V V V v g M f f x x s f M f g v v v v v v g h B M V v v v N M v M V C V V B V C V B c x c B B B B B V V V B B B B B x x A ",
"C C V B B N B v z s s f s r p l x x x g d g v v d g g v B B B V N B B N V V V V v B V B B B B B B B v x v B B B f v B B M b B S ",
"C V N M M N N M x x x z z s s s v x x x g g v v v g d g B B B C N N N N N N N V B V V B v B B B M g d d x B V V B B B V V B V V ",
"N V V N B V N v M M M c c x z l f f x v v x d d f s t f M V v V B N V N M v M N g B V B B B B v B v f g v B V C F c x B B V B v ",
"N V V N B V B v v d s d f s s s s s d x v v d p s p 7 f v B v V M N N N M v v v d M B v v V V v C B v M B B B B v t p v M B S S ",
"V C V B B N N v V d p g v d s x f f d x v v g a z f w g v B v N N N N N N B v v g B V v v N N v v x x M B B M B S x M S c d v V ",
"N N C M h M h M g M v x x g f s d d s f x B p M v d d h v v M g v V N h N C B x v V v d v V B g s V d f V V B v B M v M M v M B ",
"C N V N N V v v M M x x f p d x M g d p d v t x h v B v g d g B V C M h N N M g B V v a x B B g B M 7 5 B B V g M M B B M v M V ",
"C B V B N N h v f 9 9 p g g g x f a d p v M g x v v v v B g g V B N M N C V h d v B x s d B B M M v g w C v V v x M V B v x v V ",
"B N C v d g g M N f s g M M d s g g h p v g g d v v d f V v g V d v v h V V v g M V v d g B B M d M F M C x B B g M B M f d x B ",
"B V C f p g v M p h B v s p s d x g x s d s v d a v g x B d t c p M M f v C V B B F C M M B v x x v v x B B v v v M M v f f x M ",
"B V N d d N B g 7 p g p t s g g z f x c z p f p d g d g M d 7 7 w z c z c m c z g B V B B B v v M x x v B C v v v B B M x v M B ",
"v g v x M B v g h v g f f g d t x s w c p w w 6 v d t p x x p 5 X + + & * + O @ t x v g h v v B g d V B B B B B d x B M M M B B ",
"p p x B B v d v p p f x f p w 9 q , X 2 1 0 s l x d s t t f c s k 4 ; - ; ; 3 i d v B h h v v B f w v s v x v v w d v M M M M M ",
"M M v B B f p w x M 9 # B p x s z $ X e + O l v d x p p f d f s w r 3 - < q s v B B v v B N B g x g s f M M x v s x d x M c M m ",
"N M x g g x g d s f 5 # x p p w i p w e * 2 B g g g s f s r r r q q 3 < 4 w d v B M v v B B v f v x d f M v x v q p c g x M M z ",
"M M M g g v g p $ f B g V p w p w w p i < * i d t 5 , 2 > * = o & & > 6 w p g v v v v v B B v d v v g g v x x M i r B x M B V M ",
"M B B M x g f d 5 f d p p w 5 5 w 7 p c i X , f v w : * o & ; . . . 1 s h h N B v M v v B B v g x v x f x x x B i > m x M g M V ",
"N M M v f p g B w s s p t u 8 q 8 w s s z > 2 f x w > o   . ; . ; = q v j h B B B B B M B N B v f x g d g x x B 0 @ c x B x v B ",
"N M v M f 9 t x 2 w x d 7 5 2 0 6 7 t s z 0 8 g x z r 3 o o < < i r p v M M B V V V B B B B v v g x g d g x x M i r B x v M B x ",
"M M M M g p t s B f n p 9 w q 0 i u t g c s w M s f i e 1 @ 2 e v v x v N B B C B B B M B B M v x v x f x x x x c c M s s g x z ",
"N M v x x v M B @ % f s w w i l i s p p s z w d f p e i r 1 6 s a h f s z s u s g x v v B B B v v M x f x x g f s x d x v x c c "
};
