/* XPM */
static char *_affef14064848bfa6fa858cba54ac76jARc5cJR0EUJtw3H[] = {
/* columns rows colors chars-per-pixel */
"64 64 221 2 ",
"   c #000000",
".  c #020609",
"X  c #090604",
"o  c #262A2F",
"O  c #26292C",
"+  c #242C34",
"@  c #2A2E33",
"#  c #252E3A",
"$  c #2D3136",
"%  c #2C343C",
"&  c #29343C",
"*  c #333335",
"=  c #32363B",
"-  c #34393E",
";  c #3A3B3D",
":  c #383637",
">  c #1C252C",
",  c #403C3D",
"<  c #37433F",
"1  c #53483D",
"2  c #49413F",
"3  c #2E3943",
"4  c #2F3742",
"5  c #343B43",
"6  c #3B3E43",
"7  c #353E49",
"8  c #383A45",
"9  c #3C4145",
"0  c #35414C",
"q  c #3C434B",
"w  c #3A444B",
"e  c #3D4650",
"r  c #3E4851",
"t  c #434345",
"y  c #4A4643",
"u  c #4C4945",
"i  c #43464A",
"p  c #45494E",
"a  c #4C4C4D",
"s  c #494749",
"d  c #554B44",
"f  c #534E4B",
"g  c #574B45",
"h  c #54514D",
"j  c #5C534B",
"k  c #5B5146",
"l  c #444C54",
"z  c #4B4D52",
"x  c #4A4E59",
"c  c #424C57",
"v  c #4D5155",
"b  c #46515A",
"n  c #4C535B",
"m  c #4F585E",
"M  c #465155",
"N  c #545354",
"B  c #5A5553",
"V  c #5C5955",
"C  c #52565A",
"Z  c #58575A",
"A  c #54595D",
"S  c #5C5C5C",
"D  c #504E51",
"F  c #645B54",
"G  c #625E5B",
"H  c #695E5A",
"J  c #665B54",
"K  c #63584C",
"L  c #65615D",
"P  c #6A635D",
"I  c #6C6259",
"U  c #71675E",
"Y  c #4D5862",
"T  c #4A5763",
"R  c #535B63",
"E  c #5B5E62",
"W  c #525A64",
"Q  c #605D61",
"!  c #5D6165",
"~  c #56616B",
"^  c #5B636A",
"/  c #576164",
"(  c #5A6771",
")  c #646463",
"_  c #6B6562",
"`  c #6C6966",
"'  c #63666A",
"]  c #66696C",
"[  c #6C6B6B",
"{  c #676769",
"}  c #716662",
"|  c #736A65",
" . c #7A6D67",
".. c #726E6B",
"X. c #796E68",
"o. c #74716D",
"O. c #7B726D",
"+. c #7A786B",
"@. c #6C6D72",
"#. c #646C75",
"$. c #716F72",
"%. c #6E7274",
"&. c #6B727B",
"*. c #747373",
"=. c #7A7572",
"-. c #7C7A75",
";. c #72767B",
":. c #79777B",
">. c #767A7C",
",. c #7C7B7C",
"<. c #767877",
"1. c #81756C",
"2. c #837B74",
"3. c #837D7A",
"4. c #897F79",
"5. c #837773",
"6. c #7E817D",
"7. c #85817D",
"8. c #8A837D",
"9. c #928B7F",
"0. c #747A82",
"q. c #7C7D82",
"w. c #727983",
"e. c #6E7882",
"r. c #817F81",
"t. c #7D8185",
"y. c #7C828B",
"u. c #778286",
"i. c #7E8592",
"p. c #848484",
"a. c #8B8582",
"s. c #8C8985",
"d. c #84858A",
"f. c #868A8D",
"g. c #8C8B8C",
"h. c #898788",
"j. c #928A85",
"k. c #938D8B",
"l. c #918681",
"z. c #94918C",
"x. c #9B938C",
"c. c #949286",
"v. c #848B94",
"b. c #8C8D92",
"n. c #878A96",
"m. c #8E9297",
"M. c #8C9298",
"N. c #949394",
"B. c #9B9694",
"V. c #9D9A96",
"C. c #959599",
"Z. c #99969B",
"A. c #95999D",
"S. c #9C9B9C",
"D. c #979892",
"F. c #8F9091",
"G. c #A39B95",
"H. c #A39D9B",
"J. c #A79C95",
"K. c #A4A29E",
"L. c #ACA49E",
"P. c #A8A095",
"I. c #B2A197",
"U. c #8E93A4",
"Y. c #9C9DA1",
"T. c #969CA6",
"R. c #8B8EA1",
"E. c #A19FA2",
"W. c #9EA2A7",
"Q. c #A4A3A4",
"!. c #AAA5A2",
"~. c #ACA9A6",
"^. c #A4A5AA",
"/. c #A9A6AA",
"(. c #A5AAAC",
"). c #ACABAC",
"_. c #A6A8A5",
"`. c #B3AAA4",
"'. c #B3AEAB",
"]. c #B5ABA6",
"[. c #B5B1AD",
"{. c #BAB3AE",
"}. c #BAB1A6",
"|. c #ABADB2",
" X c #A9ABB4",
".X c #B1AFB1",
"XX c #AEB0B3",
"oX c #B3B3B4",
"OX c #BAB5B2",
"+X c #BCB8B5",
"@X c #B6B6B9",
"#X c #B5B8BC",
"$X c #BCBBBB",
"%X c #B9B7BC",
"&X c #AEB0AF",
"*X c #C3BAB4",
"=X c #C2BEBB",
"-X c #C9BBB4",
";X c #C2B6AA",
":X c #C4C2BE",
">X c #CAC3BC",
",X c #D1C8BF",
"<X c #BABCC1",
"1X c #C1BEC2",
"2X c #BDC1C3",
"3X c #BBC2C8",
"4X c #C4C4C4",
"5X c #CAC5C3",
"6X c #CCC9C5",
"7X c #CBCACB",
"8X c #C5C8CC",
"9X c #D4CCC7",
"0X c #D3CDCA",
"qX c #D5D1CC",
"wX c #D9D4CE",
"eX c #CACCD2",
"rX c #D3D3D3",
"tX c #D9D7D6",
"yX c #E2DED9",
"uX c #E5E0DA",
"iX c #E7E7E7",
/* pixels */
"                                                                                                                                ",
"                                                                                                                                ",
"                                                                                                                                ",
"                                                                                                                                ",
"                                                                                                                                ",
"                                                                                                                                ",
"                                                                                                                                ",
"                                                                                                                                ",
"        . .                             .             .                       . .       X     . .                               ",
"  X     . . . . . . .   .           X                   X           . . .           . .     .     X     X                       ",
"p.6.s.D.;.^ ( ( ^ n n i  X8Xd.p _ o.-.7.a.7.3.7.a.8.3.p.$X6X6XrX(.n l i z E v V N C / v 0.' f.[ ,.)._ B u [ L ` ) ) { [ Z u $.1X",
"c.-.+.c.F.&.( ( ~ ^ n / <Xq.Z [ =.o.=.3.a.4.2.3.8.8.3.g.H.4XtXh.r n A C A ! { Z ) E ~ ~ R R q.oX$Xs.G B V u o.*.L G E E Z a { @X",
"2.2.9.c.7.! R ~ ~ #.m ! 8XN.` ` 2.=...O.O.O.1.2.4.3.a.,.g.8XoX; 5 x A L V S f.n.h.q.&.e.w.v 0.eX).,...O.V N =.o.h S Z i t Z $.$X",
"j.8.c.s.{ z n b A i p ' oXQ...G L ` ..| | X.O.O.5.a.3.{ Q.7XY.6 # l [ [ *.*.q.n.b.n.f.y.v.w.0.eXS.*.| ....` { _ ..[ C 6 t Q *.<X",
"V.c.o.S n q w l v 5 - C.4XQ.p.` V G _ _ } _ P _ | P B q.f.&.f.W l n ;.b.C.d.M.w.@.C.b.0.;.! t.8Xg...=.=.` ` o.o.[ { v @ : E @.(.",
"S S p w e W R z l q 9 |.rX4XS.,...G h V P P _ ..2.o.*.@.l ~ e.~ < 9 &.R.U.i.n.u.] d.C.F.E.] @.n.*.` =.o._ h V *.{ { R 9 s [ { A.",
"T T c l = 9 t s 9 p M m.7X7X6XoXN.V.Q.OX=XoX).Q.=.B.oX' t.|.@XV.r.N A y.0.v.U.v.b.W.S.A.b.N.4X).B.L.G.B.h.p...s.d.v.f.:.{ ` p.$X",
"&.&.A ] ^ q. Xb.q.d.^.@X@X.X{ { p.[ s { ,.V.tX:XH.=XC.;.^.Q.).6X1X@X(.^.^.|.W.>.>.N.S.g.S.h.oXS.f.g.!.'.).oX(.p.;.d.A.@X@X$X<X$X",
"A.(.4XeX#X/ $ @.0XS.C.7X@X@X;./ %.;.' v s *.:X:XH.,.r.V.(.f.) $.Q V.1X4X@XY.g.,.p.p.h.#X7X(.Y.Y.i.b.{ V <.m.v.w.R #.@.q.f.A.Q.).",
"g.z.h.).#XA.A.@X0X4X^.,.] v @.f.>.;.Y.2X2Xp.p.:Xp.*.S.|.oX^.p.@.f./.OXoX|.|.4XrX6X$X(.^.A.n.n.y.#.y.4XOX).@.b ( v n v i i z v %.",
";.h.p.[ E ,.g.:X$X2XC 5 n l q 5 = o $ q.$Xs.k.:X[ ,.oX@XQ.S.C./.oX).~.Q. X8XrX%Xb.q.@.#.n c Y #.#.z ..=XQ.v e 0 Y n R A z C l v ",
"b.A.h.%.' E a z.4X(.v w e 7 8 8 q 6 ; 7.5X{.=X).t [ E.).N.H.C.Q.).H.L.z.y.T. XZ.b.b.q.>.q.0.e.n.v.{ G './.6 n 0 l n n C v C v z ",
"h.,.q.;.z v ^ E !.$Xv 5 5 i l s n v G 4.`.=X=X{ i p.-.V.~.B.S.Q.E.x.J.B.v.T.T.).)..XQ.h.S.b.N.V.T.@.V !.Q.' c 4 5 W R C C v i z ",
"*.<.*.^ b b Y v 2.*Xp.* $ * ; t T C ` x.;X>X4Xv 6 ,.,.3.K.H.H.V.H.J.I.j.f.W.p.2.H.H.2...2.H.'.[.<Xb.t k.|.' b v = = q i i a 9 z ",
"^ w.~ ~ z W w 5 G !.[.p.S @.[ ,.G.}.`.-X9X6XM.0 t D a.3.l.H./.Q.~.`.x.j.q.^.<.d F j g J P ..E.XX/.Z.[ ~.6X,.5 Y 9 @ q z 9 v i p ",
"z p p = p A q l B.6X6XoX|.oX#X4X1X6X'.H.`.6XE w C a N G ..Z s p.h.=.5.4.` A.V.d d F F J d u ,.^.Y.C.V.oX'.Q.9 7 v p v p v i 9 9 ",
"q.N.XXC.p.{ *.A.0X7X$XS o 6 9 l l ~ t.S.5X5XE q v v $ @ O $ 9 9 - h 5.X.2 Q.B.J J F j J H f ` .XZ.C.Q.=XO.OXZ - p R A C C z p z ",
"(.Q.Y.Y.Y.8X,.] ) /.:XN ; A - 9 5 @ z [ 5X6X*.a ) C 9 q r i 5 9 5 a _ H F +XOXP j d k g j F _ B.^.[ C.6XO.*X..Z A E C E ! ' C p ",
"#X' ] ,.C.iX<X>.q.4X6XS.g.d.@.@.3.h.$X$X0XyX'.Z f S E v z i 6 N l * B 5.O.{.yX:X2.U | O.} O.O.=.q.r.).4X8.x.~.h.;.S %.[ *.*.,.,.",
"v.;.M.b.A.b.C.C.p.).V.H.Q.).$X$XqXwXtXyXyXuXiX4Xj.3.g.S.N.q.b.C.C.).oXOX].>X:XqX>X*X`.9XwX9X=XOX).Y.Q.+XOX{.tXrX$XS.$X$X$X4X$X$X",
"R / %.' A ' z Z q C [ ) B N.).7.s.+XqX$XH.L.>XqX9X*Xz.y ; Z a ; f f O V K.2.k.L.J.~.8...P P L | H.$X^.+Xs...3.h.h.Q.4XQ.z.D.3.7.",
";.>.;.@.{ [ [ ) l ^ 6.-.*.H.K.p.g.).E { =.O.9.P.*X,X}.x.3.) N N H G *.&X[.=.7.=.8.z.).K.7.x.x.L.s.C.Q.7X!.x.h.g.,..X=X[ ` -.-.7.",
"*.%.%.;.' [ [ ` v S <.,.o.z.j.k.~.,.! q i o.5.1.4.H.:X>X}.`.*XOX_.g.*.o.6.N.p.;.%.;.A v A f.;.z i s ] E.$X.XQ.Q.T.T.|.|.C.p.3.3.",
"<.[ [ { $.) ) ` Z ' [ [ *.s.H.G.[ C ] - $ f 5.8.2.O.k.`.>X>XV.,.R R i 6 q 6 = p y u N ; ; ,.S.*.[ g.V.3._ _ _ ) Z y S N./.).S.Q.",
"[ o.! { [ *.` ` L *.o.) [ h.4XB.C p v l 9 [ s.k.j.8.a.a.G.+X` N v x i l z v p i V P V h y =.[.~.B.3.} _ X.O.} F K H I J _ '.7X8X",
"*.[ S { ` ` ` o.U _ ..{ ) ,.:X` c W E l 6 N ' z y [ @.s G H.P h a u a h h h h 2 d j F j f L =XH.G =.4.O.O.1.U j I I H P P ..d.$X",
"L ) [ ` ` ..-.+.5...=.` Z *.~.y 5 l v 5 @ o 5 9 t 5 = s j.`.x.P j j k 1 k k 1 K g j F d y f H.,.) _ _ P P P G B d L F B _ B N S.",
") ) o...L o.=.-.3.O...L V ..!.a.! z p 9 9 q ; s C l A S.'.l.G.2.} H J d d j d 1 u f j y f Z p.:.Z G G G L ` _ L { *.-.o.o.` ..k.",
"*.V L o.7.a.a.N.S.K.~.'.~.z.!.OX[.N.p.%.q.g.z.-.2.h.p.!.j.2.H.@X!.!.~.K.B.V.'.!.k.7.8._ B G S.*.f B L _ P L ..2.*.L _ | P ..o.*.",
"p.p.7.V.!.6Xg.<.C.+X+XV.H.B.!.!.-Xl., Z i Z O.X. .} _ } F B Z ^.OX).V.Q.K.,.D.K.x.L.].>X!.j.=XH.7.` B j B B F H _ _ P U P O.` ..",
"%.>.v 9 p (.k.d F F B j P } 2.x.OXp.O z p N ..V J } H X.O.} Z E E z 9 :.,.[ K.` h h F P L.:X+X$X*XOXS.g.p.f.p.m.Y.m.Y.(.^.oXQ./.",
"l z 5 5 5 ;.7Xs.H.!.Q.~.'.~.[.=X-X8.* : S h j H G G G L V B E W C { i E Q.$X[.| _ L B V ` '.0X:X$XV.%.f.>.z ' ^ ^ ^ #.;.q.^.<XXX",
"n r e b 7 m 4XrX6X@X$XC.*.{ C.p.$X,.= # # @ z ` P _ ) G _ Z A z z C z 6 q.=X8.I P P V V V G K.6XY.p 9 9 C x l M c 7 5 q ^ &.T.3X",
"c c e c # 5 (.6Xg.[ N p C p *.q.G.3.* 5 & $ B } } F P } F L y @ - = 5 & R (.2. .U G G V h B h `.).A p = 6 q 5 0 r b 5 % % v / ^.",
"l n Y r b q S.6X*.N @ ; t * E N.x.a.: % % - ) } _ _ ) B V Z : 9 i = & 3 + >.S.F J V h V h B V J.5X*.; a N N ] >.&.&.;.^ ' @.d.|.",
"~ w z w % $ S.9XH.$.S s 6 { Q.g.7.,.5 w 0 5 q s i 6 % - @ 6 + 3 i 5 w q @ ] ).G F u h f B f y 2.[.~.*.,.Q.@X4X7X6XrX4X<X6X$XS.g.",
"c W l Y q $ b.5XoXQ.oXW.|.4XtXS.L.'.=.:.h.,...3.] ' 0.%.C.E v 5 [ ,.@.%.q.S./.,.` s.3.8...G h ` '.).@.{ ,.[ V.$Xg.,.[ ..B.-.` | ",
"T W c T c + ! rX1Xh.' ;.%.E Q 3.*.,.] A ] v t.d.a.a.3.!.{.L.{.!.OXOXS.).B.).[.3.,.s.B.H.L.K.N.g.$XV.p.h.Q.Q.@X,.Z L ) N N { L P ",
"z n b b r 7 n 6X4Xz q + 5 0 @ 5 5 w q 5 o > # % 5 7 @ ) =.O.2.k.t.z p x x n p 6 % @ z H.L.L.[.(.U.R R C @.@XV.{ L ` ) G L Z L *.",
"^ &.n r r c %.rX(.C Y ~ W Y c w v z l w 7 5 3 5 r l p *.=.2.G ..S z v l q v C v v z - h.OX).N.A.v.#.x m.2X@X[ G ..o.` L ` ` ) { ",
"R R z n T w A 6XQ.v n c z R l e q v z q w w 5 3 w 5 9 [ o.5.L 3.E z p 6 i E ) Z v ^ n ~ t.N.v - 3 & + = |.S.{ { ` ..o.` o.,..._ ",
"Y v W R n w v 4X(.6 v e % 5 n z q W ~ n v n z e p 9 5 S 3.2.3.g.q v ! S N N N E S v ~ W z d.' o q w $ S ).r.G L G L ..L L o._ G ",
"A v A n z q ! 6XQ.@ 6 9 9 6 i E v v A E W n v z i A ! [ 3.o.g.g.i z ! ` ) B a N B * w v 9 h.Y.6 q p C oXrX).B.S.V.g.h.o._ o...o.",
". .   . . .       . . .       . . . . . . . . .     .   X       .                   . . .       . .                 X           ",
"      X . .         . X                     .   X             . . X                 .     X       X   X         .             X ",
"          . .       .                                         .                     . X       .           .                     ",
"                                                                                                                                ",
"                                                                                                                                ",
"                                                                                                                                ",
"                                                                                                                                ",
"                                                                                                                                ",
"                                                                                                                                ",
"                                                                                                                                ",
"                                                                                                                                "
};
